HIERARCHY
ROOT reference
{
  OFFSET 0 0 0
  CHANNELS 6 Xposition Yposition Zposition Zrotation Xrotation Yrotation
  JOINT Hips
  {
    OFFSET 339.145 90.8604 236.464
    CHANNELS 3 Zrotation Xrotation Yrotation
    JOINT RightUpLeg
    {
      OFFSET -9.24113 -1.522 -0.0337757
      CHANNELS 3 Zrotation Xrotation Yrotation
      JOINT RightLeg
      {
        OFFSET 0.0344394 -41.8985 0.100154
        CHANNELS 3 Zrotation Xrotation Yrotation
        JOINT RightFoot
        {
          OFFSET -0.415571 -42.0751 0.023027
          CHANNELS 3 Zrotation Xrotation Yrotation
          End Site
          {
            OFFSET 0 -7.69 17.5
          }
        }
      }
    }
    JOINT LeftUpLeg
    {
      OFFSET 9.30897 -1.67379 -0.0291548
      CHANNELS 3 Zrotation Xrotation Yrotation
      JOINT LeftLeg
      {
        OFFSET 0.0832755 -41.864 -0.14338
        CHANNELS 3 Zrotation Xrotation Yrotation
        JOINT LeftFoot
        {
          OFFSET 0.17151 -41.5225 0.735469
          CHANNELS 3 Zrotation Xrotation Yrotation
          End Site
          {
            OFFSET 0 -7.69 17.5
          }
        }
      }
    }
    JOINT Spine
    {
      OFFSET 0.00853273 14.2903 0.0777264
      CHANNELS 3 Zrotation Xrotation Yrotation
      JOINT Spine1
      {
        OFFSET 0.0173944 9.71323 0.029081
        CHANNELS 3 Zrotation Xrotation Yrotation
        JOINT Spine2
        {
          OFFSET 0.0412483 10.1247 -0.0145163
          CHANNELS 3 Zrotation Xrotation Yrotation
          JOINT Spine3
          {
            OFFSET 0.0279063 9.71793 0.00755232
            CHANNELS 3 Zrotation Xrotation Yrotation
            JOINT Neck
            {
              OFFSET 0.0852486 10.3712 0.0268485
              CHANNELS 3 Zrotation Xrotation Yrotation
              JOINT Head
              {
                OFFSET 0.0739267 9.48251 0.0332551
                CHANNELS 3 Zrotation Xrotation Yrotation
                End Site
                {
                  OFFSET 0 15.95 0
                }
              }
            }
            JOINT RightShoulder
            {
              OFFSET -3.14957 6.95772 0.0300988
              CHANNELS 3 Zrotation Xrotation Yrotation
              JOINT RightArm
              {
                OFFSET -12.7513 0.0411148 0.0791701
                CHANNELS 3 Zrotation Xrotation Yrotation
                JOINT RightForeArm
                {
                  OFFSET -26.4959 0.0361336 0.259434
                  CHANNELS 3 Zrotation Xrotation Yrotation
                  JOINT RightHand
                  {
                    OFFSET -25.9829 -0.0837334 0.191464
                    CHANNELS 3 Zrotation Xrotation Yrotation
                    JOINT RightHandThumb1
                    {
                      OFFSET -2.48905 0.190105 3.12053
                      CHANNELS 3 Zrotation Xrotation Yrotation
                      JOINT RightHandThumb2
                      {
                        OFFSET -3.68274 0 0
                        CHANNELS 3 Zrotation Xrotation Yrotation
                        JOINT RightHandThumb3
                        {
                          OFFSET -2.55832 0 0
                          CHANNELS 3 Zrotation Xrotation Yrotation
                          End Site
                          {
                            OFFSET -2.194 0 0
                          }
                        }
                      }
                    }
                    JOINT RightInHandIndex
                    {
                      OFFSET -3.22368 0.508421 1.97842
                      CHANNELS 3 Zrotation Xrotation Yrotation
                      JOINT RightHandIndex1
                      {
                        OFFSET -5.21684 -0.091368 0.999158
                        CHANNELS 3 Zrotation Xrotation Yrotation
                        JOINT RightHandIndex2
                        {
                          OFFSET -3.61937 0 0
                          CHANNELS 3 Zrotation Xrotation Yrotation
                          JOINT RightHandIndex3
                          {
                            OFFSET -2.0521 0 0
                            CHANNELS 3 Zrotation Xrotation Yrotation
                            End Site
                            {
                              OFFSET -1.805 0 0
                            }
                          }
                        }
                      }
                    }
                    JOINT RightInHandMiddle
                    {
                      OFFSET -3.38211 0.517263 0.756737
                      CHANNELS 3 Zrotation Xrotation Yrotation
                      JOINT RightHandMiddle1
                      {
                        OFFSET -5.17411 -0.084 0.313895
                        CHANNELS 3 Zrotation Xrotation Yrotation
                        JOINT RightHandMiddle2
                        {
                          OFFSET -3.94947 0 0
                          CHANNELS 3 Zrotation Xrotation Yrotation
                          JOINT RightHandMiddle3
                          {
                            OFFSET -2.47579 0 0
                            CHANNELS 3 Zrotation Xrotation Yrotation
                            End Site
                            {
                              OFFSET -1.975 0 0
                            }
                          }
                        }
                      }
                    }
                    JOINT RightInHandRing
                    {
                      OFFSET -3.36516 0.537895 -0.128947
                      CHANNELS 3 Zrotation Xrotation Yrotation
                      JOINT RightHandRing1
                      {
                        OFFSET -4.63474 -0.022105 -0.478947
                        CHANNELS 3 Zrotation Xrotation Yrotation
                        JOINT RightHandRing2
                        {
                          OFFSET -3.44238 0 0
                          CHANNELS 3 Zrotation Xrotation Yrotation
                          JOINT RightHandRing3
                          {
                            OFFSET -2.3881 0 0
                            CHANNELS 3 Zrotation Xrotation Yrotation
                            End Site
                            {
                              OFFSET -1.857 0 0
                            }
                          }
                        }
                      }
                    }
                    JOINT RightInHandPinky
                    {
                      OFFSET -3.16105 0.469368 -1.20179
                      CHANNELS 3 Zrotation Xrotation Yrotation
                      JOINT RightHandPinky1
                      {
                        OFFSET -4.14105 -0.022105 -1.09053
                        CHANNELS 3 Zrotation Xrotation Yrotation
                        JOINT RightHandPinky2
                        {
                          OFFSET -2.75653 0 0
                          CHANNELS 3 Zrotation Xrotation Yrotation
                          JOINT RightHandPinky3
                          {
                            OFFSET -1.74189 0 0
                            CHANNELS 3 Zrotation Xrotation Yrotation
                            End Site
                            {
                              OFFSET -1.645 0 0
                            }
                          }
                        }
                      }
                    }
                  }
                }
              }
            }
            JOINT LeftShoulder
            {
              OFFSET 3.25273 6.91522 -0.0295735
              CHANNELS 3 Zrotation Xrotation Yrotation
              JOINT LeftArm
              {
                OFFSET 12.7785 0.0134102 -0.0213482
                CHANNELS 3 Zrotation Xrotation Yrotation
                JOINT LeftForeArm
                {
                  OFFSET 26.5044 -0.0446277 0.0404034
                  CHANNELS 3 Zrotation Xrotation Yrotation
                  JOINT LeftHand
                  {
                    OFFSET 25.9955 -0.0467726 -0.0166804
                    CHANNELS 3 Zrotation Xrotation Yrotation
                    JOINT LeftHandThumb1
                    {
                      OFFSET 2.48905 0.190105 3.12053
                      CHANNELS 3 Zrotation Xrotation Yrotation
                      JOINT LeftHandThumb2
                      {
                        OFFSET 3.68274 0 0
                        CHANNELS 3 Zrotation Xrotation Yrotation
                        JOINT LeftHandThumb3
                        {
                          OFFSET 2.55832 0 0
                          CHANNELS 3 Zrotation Xrotation Yrotation
                          End Site
                          {
                            OFFSET 2.194 0 0
                          }
                        }
                      }
                    }
                    JOINT LeftInHandIndex
                    {
                      OFFSET 3.22368 0.508421 1.97842
                      CHANNELS 3 Zrotation Xrotation Yrotation
                      JOINT LeftHandIndex1
                      {
                        OFFSET 5.21684 -0.091368 0.999158
                        CHANNELS 3 Zrotation Xrotation Yrotation
                        JOINT LeftHandIndex2
                        {
                          OFFSET 3.61937 0 0
                          CHANNELS 3 Zrotation Xrotation Yrotation
                          JOINT LeftHandIndex3
                          {
                            OFFSET 2.0521 0 0
                            CHANNELS 3 Zrotation Xrotation Yrotation
                            End Site
                            {
                              OFFSET 1.805 0 0
                            }
                          }
                        }
                      }
                    }
                    JOINT LeftInHandMiddle
                    {
                      OFFSET 3.38211 0.517263 0.756737
                      CHANNELS 3 Zrotation Xrotation Yrotation
                      JOINT LeftHandMiddle1
                      {
                        OFFSET 5.17411 -0.084 0.313895
                        CHANNELS 3 Zrotation Xrotation Yrotation
                        JOINT LeftHandMiddle2
                        {
                          OFFSET 3.94947 0 0
                          CHANNELS 3 Zrotation Xrotation Yrotation
                          JOINT LeftHandMiddle3
                          {
                            OFFSET 2.47579 0 0
                            CHANNELS 3 Zrotation Xrotation Yrotation
                            End Site
                            {
                              OFFSET 1.975 0 0
                            }
                          }
                        }
                      }
                    }
                    JOINT LeftInHandRing
                    {
                      OFFSET 3.36516 0.537895 -0.128947
                      CHANNELS 3 Zrotation Xrotation Yrotation
                      JOINT LeftHandRing1
                      {
                        OFFSET 4.63474 -0.022105 -0.478947
                        CHANNELS 3 Zrotation Xrotation Yrotation
                        JOINT LeftHandRing2
                        {
                          OFFSET 3.44238 0 0
                          CHANNELS 3 Zrotation Xrotation Yrotation
                          JOINT LeftHandRing3
                          {
                            OFFSET 2.3881 0 0
                            CHANNELS 3 Zrotation Xrotation Yrotation
                            End Site
                            {
                              OFFSET 1.857 0 0
                            }
                          }
                        }
                      }
                    }
                    JOINT LeftInHandPinky
                    {
                      OFFSET 3.16105 0.469368 -1.20179
                      CHANNELS 3 Zrotation Xrotation Yrotation
                      JOINT LeftHandPinky1
                      {
                        OFFSET 4.14105 -0.022105 -1.09053
                        CHANNELS 3 Zrotation Xrotation Yrotation
                        JOINT LeftHandPinky2
                        {
                          OFFSET 2.75653 0 0
                          CHANNELS 3 Zrotation Xrotation Yrotation
                          JOINT LeftHandPinky3
                          {
                            OFFSET 1.74189 0 0
                            CHANNELS 3 Zrotation Xrotation Yrotation
                            End Site
                            {
                              OFFSET 1.645 0 0
                            }
                          }
                        }
                      }
                    }
                  }
                }
              }
            }
          }
        }
      }
    }
  }
}
MOTION
Frames: 2
Frame Time: 0.00833333
3.150000000000000000e+03 0.000000000000000000e+00 0.000000000000000000e+00 0.000000000000000000e+00 0.000000000000000000e+00 0.000000000000000000e+00 2.688980000000000103e+01 1.413790000000000013e+01 -6.954530000000001166e+01 -7.136219999999998009e+00 -4.986549999999999727e+01 -6.433430000000001314e+00 -1.645559999999999690e+00 2.193589999999999662e+01 -1.324499999999999922e+01 8.430029999999998580e+00 -1.589339999999772601e-03 2.342279999999999518e+01 1.605140000000000100e+01 -4.184860000000000468e+01 6.948430000000001883e+00 3.713370000000001170e+00 2.657889999999999731e+01 -6.843750000000000000e+00 -1.134900000000000020e+01 -1.336330000000000240e+01 -1.592159999999999798e+01 -8.737590000000000856e+00 1.309329999999999927e+01 1.518699999999999761e+01 -1.860780000000000101e+00 3.502800000000000136e+00 3.550380000000000091e+00 -3.100490000000000190e+00 5.647669999999999746e+00 5.763430000000000497e+00 -3.103359999999999452e-01 -3.839890000000000803e-01 -4.555359999999999410e-01 -3.106809999999999850e-01 -3.916160000000001862e-01 -4.534310000000019159e-01 -6.130950000000000344e+00 -7.343210000000000903e+00 -7.946419999999996264e+00 1.308029999999999582e+00 -1.085570000000000235e+01 2.446740000000000492e+01 7.236409999999999343e+01 -4.840279999999950178e-01 5.063880000000001047e+01 2.416279999999999717e+01 -4.995259999999999678e+01 1.355450000000000443e+01 1.877410000000000068e+01 -2.081919999999999860e+01 -1.508430000000000071e+01 2.818400000000000105e+01 1.072940000000000005e+01 1.915919999999999845e+01 -8.074050000000000316e-15 0.000000000000000000e+00 -1.000000000000000000e+01 -4.984629999999999115e-15 -7.951389999999999226e-16 -1.000000000000000000e+01 -9.541660000000002090e-15 -6.361109999999999741e-15 1.590279999999999880e-15 1.998179999999999978e+01 8.718970000000000331e-01 2.396399999999999864e+00 2.400000000000000000e+01 -2.385420000000000017e-15 -2.544439999999999986e-14 2.000000000000000000e+01 -1.590280000000000471e-15 -1.272219999999999677e-14 -9.541660000000002090e-15 -6.361109999999999741e-15 1.590279999999999880e-15 2.000000000000000000e+01 4.770830000000000256e-15 -9.541660000000000512e-15 2.400000000000000000e+01 1.192710000000000008e-15 -1.908330000000000147e-14 2.000000000000000000e+01 -1.590279999999999880e-15 -1.908330000000000147e-14 -9.541660000000002090e-15 -6.361109999999999741e-15 1.590279999999999880e-15 1.997479999999999833e+01 -1.025649999999999951e+00 -2.819380000000000219e+00 2.400000000000000000e+01 -1.272220000000000151e-14 -3.498609999999999948e-14 2.000000000000000000e+01 3.180549999999999982e-15 -2.226389999999999639e-14 -9.541660000000002090e-15 -6.361109999999999741e-15 1.590279999999999880e-15 1.978150000000000119e+01 -3.009479999999999933e+00 -8.305149999999999366e+00 2.400000000000000000e+01 -3.975690000000000513e-15 -2.862500000000000425e-14 2.000000000000000000e+01 -1.351739999999999991e-14 -6.361110000000002897e-15 1.571579999999999977e+01 -1.349389999999999823e+01 -2.948620000000000019e+01 -3.766229999999998768e+01 3.322599999999999909e+01 -6.704889999999998906e+01 1.095390000000000086e+01 -5.587369999999999948e+01 1.084390000000000498e+01 -2.176310000000000144e+01 -2.360360000000000014e+01 6.290709999999999802e+00 -2.818400000000000105e+01 1.072940000000000005e+01 -1.915919999999999845e+01 1.235769999999999963e-14 3.180549999999999982e-15 1.000000000000000000e+01 -2.583700000000000075e-14 0.000000000000000000e+00 1.000000000000000000e+01 1.272219999999999993e-14 6.361109999999997375e-15 -1.590280000000000274e-15 -1.998179999999999978e+01 8.718970000000000331e-01 -2.396399999999999864e+00 -2.400000000000000000e+01 1.272219999999999993e-14 0.000000000000000000e+00 -2.000000000000000000e+01 -1.490890000000000053e-15 -1.590280000000000116e-14 1.272219999999999993e-14 6.361109999999997375e-15 -1.590280000000000274e-15 -2.000000000000000000e+01 3.180549999999999193e-15 6.361109999999999741e-15 -2.400000000000000000e+01 4.770830000000000256e-15 -3.180549999999999982e-15 -2.000000000000000000e+01 1.789059999999999927e-15 0.000000000000000000e+00 1.272219999999999993e-14 6.361109999999997375e-15 -1.590280000000000274e-15 -1.997479999999999833e+01 -1.025649999999999951e+00 2.819380000000000219e+00 -2.400000000000000000e+01 0.000000000000000000e+00 9.541660000000000512e-15 -2.000000000000000000e+01 7.951390000000000804e-15 -1.590280000000000116e-14 1.272219999999999993e-14 6.361109999999997375e-15 -1.590280000000000274e-15 -1.978150000000000119e+01 -3.009479999999999933e+00 8.305149999999999366e+00 -2.400000000000000000e+01 -6.361109999999999741e-15 -9.541660000000000512e-15 -2.000000000000000000e+01 -3.578119999999999853e-15 -3.180549999999999982e-15
3.150000000000000000e+03 0.000000000000000000e+00 0.000000000000000000e+00 0.000000000000000000e+00 0.000000000000000000e+00 0.000000000000000000e+00 2.692589999999999861e+01 1.402480000000000260e+01 -6.979510000000003345e+01 -6.942340000000001510e+00 -4.987650000000000716e+01 -6.232320000000001414e+00 -1.729890000000000150e+00 2.174749999999999872e+01 -1.307039999999999935e+01 8.376360000000001804e+00 1.713459999999997763e-01 2.342920000000000513e+01 1.615330000000000155e+01 -4.182699999999999818e+01 6.989189999999997127e+00 3.548680000000000945e+00 2.675430000000000064e+01 -6.692350000000001131e+00 -1.128180000000000049e+01 -1.348910000000000053e+01 -1.577620000000000111e+01 -8.732409999999998007e+00 1.306040000000000134e+01 1.514230000000000231e+01 -1.859459999999999891e+00 3.492780000000000662e+00 3.538949999999999374e+00 -3.097020000000000106e+00 5.631459999999998800e+00 5.744899999999999451e+00 -3.183609999999998941e-01 -3.839890000000000803e-01 -4.455760000000004162e-01 -3.187120000000001063e-01 -3.916160000000001862e-01 -4.434380000000004429e-01 -6.263419999999999987e+00 -7.317350000000000243e+00 -7.769700000000000273e+00 1.339739999999999931e+00 -1.061890000000000001e+01 2.437480000000000047e+01 7.256940000000000168e+01 -7.138730000000066411e-01 5.043610000000000326e+01 2.551570000000000960e+01 -4.984019999999999584e+01 1.510990000000001032e+01 1.887010000000000076e+01 -2.099050000000000438e+01 -1.476069999999999816e+01 2.818400000000000105e+01 1.072940000000000005e+01 1.915919999999999845e+01 -2.180120000000000092e-14 4.572049999999999815e-15 -1.000000000000000000e+01 -1.712950000000000037e-14 -5.565969999999999210e-15 -1.000000000000000000e+01 -1.590280000000000116e-14 -3.180549999999999982e-15 3.180549999999999982e-15 1.998179999999999978e+01 8.718970000000000331e-01 2.396399999999999864e+00 2.400000000000000000e+01 -1.133069999999999773e-14 -3.816669999999999756e-14 2.000000000000000000e+01 -3.975690000000000513e-15 -4.770829999999999625e-14 -1.590280000000000116e-14 -3.180549999999999982e-15 3.180549999999999982e-15 2.000000000000000000e+01 7.951390000000000804e-15 -2.226389999999999955e-14 2.400000000000000000e+01 -1.192710000000000403e-15 -4.134720000000000733e-14 2.000000000000000000e+01 -5.565969999999998421e-15 -3.180550000000000771e-14 -1.590280000000000116e-14 -3.180549999999999982e-15 3.180549999999999982e-15 1.997479999999999833e+01 -1.025649999999999951e+00 -2.819380000000000219e+00 2.400000000000000000e+01 -8.746530000000000547e-15 -4.452779999999999910e-14 2.000000000000000000e+01 -3.180549999999999587e-15 -4.452779999999999279e-14 -1.590280000000000116e-14 -3.180549999999999982e-15 3.180549999999999982e-15 1.978150000000000119e+01 -3.009479999999999933e+00 -8.305149999999999366e+00 2.400000000000000000e+01 -9.144089999999999852e-15 -3.816669999999999125e-14 2.000000000000000000e+01 -3.180550000000001560e-15 -3.498609999999999948e-14 1.567789999999999928e+01 -1.341069999999999851e+01 -2.958709999999999951e+01 -3.752609999999999957e+01 3.318650000000000944e+01 -6.705140000000000100e+01 1.088940000000000197e+01 -5.483929999999999438e+01 1.073410000000000153e+01 -2.157400000000000517e+01 -2.366800000000000281e+01 6.350139999999998786e+00 -2.818400000000000105e+01 1.072940000000000005e+01 -1.915919999999999845e+01 5.898420000000002472e-15 3.180549999999999982e-15 1.000000000000000000e+01 -2.850580000000000184e-14 -3.180549999999999982e-15 1.000000000000000000e+01 9.541659999999998934e-15 9.541660000000002090e-15 0.000000000000000000e+00 -1.998179999999999978e+01 8.718970000000000331e-01 -2.396399999999999864e+00 -2.400000000000000000e+01 1.590280000000000274e-15 1.590280000000000116e-14 -2.000000000000000000e+01 -4.422959999999998806e-15 0.000000000000000000e+00 9.541659999999998934e-15 9.541660000000002090e-15 0.000000000000000000e+00 -2.000000000000000000e+01 6.361109999999999741e-15 6.361110000000000530e-15 -2.400000000000000000e+01 -4.770830000000000256e-15 9.541660000000000512e-15 -2.000000000000000000e+01 -2.484810000000000237e-15 9.541660000000002090e-15 9.541659999999998934e-15 9.541660000000002090e-15 0.000000000000000000e+00 -1.997479999999999833e+01 -1.025649999999999951e+00 2.819380000000000219e+00 -2.400000000000000000e+01 -1.590280000000000077e-15 2.862499999999999793e-14 -2.000000000000000000e+01 1.789059999999999927e-15 -3.180549999999999193e-15 9.541659999999998934e-15 9.541660000000002090e-15 0.000000000000000000e+00 -1.978150000000000119e+01 -3.009479999999999933e+00 8.305149999999999366e+00 -2.400000000000000000e+01 -4.770830000000000256e-15 6.361110000000000530e-15 -2.000000000000000000e+01 0.000000000000000000e+00 6.361110000000000530e-15
